<?xml version="1.0" encoding="UTF-8" standalone="no"?>
<!-- Created with Inkscape (http://www.inkscape.org/) -->

<svg
   width="1024mm"
   height="1024mm"
   viewBox="0 0 1024 1024"
   version="1.1"
   id="svg1"
   xml:space="preserve"
   xmlns:inkscape="http://www.inkscape.org/namespaces/inkscape"
   xmlns:sodipodi="http://sodipodi.sourceforge.net/DTD/sodipodi-0.dtd"
   xmlns="http://www.w3.org/2000/svg"
   xmlns:svg="http://www.w3.org/2000/svg"><sodipodi:namedview
     id="namedview1"
     pagecolor="#505050"
     bordercolor="#eeeeee"
     borderopacity="1"
     inkscape:showpageshadow="0"
     inkscape:pageopacity="0"
     inkscape:pagecheckerboard="0"
     inkscape:deskcolor="#505050"
     inkscape:document-units="mm"><inkscape:page
       x="0"
       y="0"
       width="1024"
       height="1024"
       id="page2"
       margin="0"
       bleed="0" /></sodipodi:namedview><defs
     id="defs1" /><g
     inkscape:label="Layer 1"
     inkscape:groupmode="layer"
     id="layer1"><path
       d="M 445.19122,974.1114 C 269.18209,906.36183 121.47501,788.80465 121.47501,553.59684 V 226.52996 a 46.245174,46.72384 0 0 1 46.24517,-46.72384 c 92.49035,0 208.10328,-56.06861 288.56989,-127.088848 a 54.106854,54.666893 0 0 1 70.29266,0 C 607.51178,124.20475 722.66227,179.80612 815.15262,179.80612 a 46.245174,46.72384 0 0 1 46.24517,46.72384 v 186.89536"
       id="path1"
       style="fill:none;stroke:currentColor;stroke-width:46.4839;stroke-linecap:round;stroke-linejoin:round" /><g
       style="fill:none;stroke:currentColor;stroke-width:1;stroke-linecap:round;stroke-linejoin:round"
       id="g2"
       transform="matrix(28.133673,0,0,37.084396,352.10802,170.39246)"><path
         d="m 12,3 q 1,4 4,6.5 3,2.5 3,5.5 a 7,7 0 0 1 -14,0 5,5 0 0 1 1,-3 2.5,2.5 0 0 0 5,0 C 11,10 9.5,9 9.5,7 Q 9.5,5 12,3"
         id="path1-5" /></g></g></svg>
